<svg fill="#000000" width="64px" height="64px" viewBox="-24 -24 72.00 72.00" id="thunder-2" data-name="Flat Color" xmlns="http://www.w3.org/2000/svg" class="icon flat-color" transform="matrix(-1, 0, 0, 1, 0, 0)rotate(0)" stroke="#000000" stroke-width="0.00024000000000000003"><g id="SVGRepo_bgCarrier" stroke-width="0"></g><g id="SVGRepo_tracerCarrier" stroke-linecap="round" stroke-linejoin="round" stroke="#CCCCCC" stroke-width="0.624"></g><g id="SVGRepo_iconCarrier"><path id="primary" d="M18.86,11.27l-3.23-8A2,2,0,0,0,13.72,2H9.38a2.06,2.06,0,0,0-1.71.9,2,2,0,0,0-.19,1.84L8.81,8H7.05A2,2,0,0,0,5.18,9.18a2,2,0,0,0,.29,2.1l8.8,10.37A1,1,0,0,0,15,22a1.12,1.12,0,0,0,.47-.11,1,1,0,0,0,.5-1.15L14.19,14H17a2.06,2.06,0,0,0,1.71-.9A2,2,0,0,0,18.86,11.27Z" style="fill: #000000;"></path></g></svg>